<svg
						id="visual"
						viewBox="0 0 540 540"
						width="1000"
						height="800"
						xmlns="http://www.w3.org/2000/svg"
						xmlnsXlink="http://www.w3.org/1999/xlink"
						version="1.1"
					>
						<g transform="translate(400, 400)">
							<path
								d="M-344 0C-341.3 -25.9 -338.7 -51.8 -329.5 -75.2C-320.4 -98.6 -304.8 -119.6 -291 -140.1C-277.2 -160.7 -265.1 -180.7 -251.7 -200.8C-238.4 -220.8 -223.6 -240.9 -205.8 -258C-187.9 -275.1 -167 -289.1 -144.9 -300.9C-122.9 -312.8 -99.8 -322.5 -75.4 -330.5C-51.1 -338.5 -25.6 -344.7 0 -351L0 0Z"
								fill="#ecf2f1"
							></path>
							<path
								d="M-294.9 0C-292.6 -22.2 -290.3 -44.4 -282.5 -64.5C-274.6 -84.6 -261.3 -102.5 -249.4 -120.1C-237.6 -137.7 -227.3 -154.9 -215.8 -172.1C-204.3 -189.3 -191.7 -206.5 -176.4 -221.1C-161.1 -235.8 -143.1 -247.8 -124.2 -257.9C-105.3 -268.1 -85.5 -276.4 -64.7 -283.3C-43.8 -290.1 -21.9 -295.5 0 -300.9L0 0Z"
								fill="#c5d8d6"
							></path>
							<path
								d="M-245.7 0C-243.8 -18.5 -241.9 -37 -235.4 -53.7C-228.9 -70.5 -217.7 -85.5 -207.9 -100.1C-198 -114.8 -189.4 -129.1 -179.8 -143.4C-170.3 -157.7 -159.7 -172.1 -147 -184.3C-134.2 -196.5 -119.3 -206.5 -103.5 -214.9C-87.8 -223.4 -71.3 -230.4 -53.9 -236.1C-36.5 -241.8 -18.3 -246.2 0 -250.7L0 0Z"
								fill="#9fbebc"
							></path>
							<path
								d="M-196.6 0C-195 -14.8 -193.5 -29.6 -188.3 -43C-183.1 -56.4 -174.2 -68.4 -166.3 -80.1C-158.4 -91.8 -151.5 -103.3 -143.9 -114.7C-136.2 -126.2 -127.8 -137.7 -117.6 -147.4C-107.4 -157.2 -95.4 -165.2 -82.8 -172C-70.2 -178.7 -57 -184.3 -43.1 -188.9C-29.2 -193.4 -14.6 -197 0 -200.6L0 0Z"
								fill="#7aa5a3"
							></path>
							<path
								d="M-147.4 0C-146.3 -11.1 -145.1 -22.2 -141.2 -32.2C-137.3 -42.3 -130.6 -51.3 -124.7 -60.1C-118.8 -68.9 -113.6 -77.4 -107.9 -86C-102.2 -94.6 -95.8 -103.3 -88.2 -110.6C-80.5 -117.9 -71.6 -123.9 -62.1 -129C-52.7 -134.1 -42.8 -138.2 -32.3 -141.6C-21.9 -145.1 -11 -147.7 0 -150.4L0 0Z"
								fill="#538c8a"
							></path>
							<path
								d="M-98.3 0C-97.5 -7.4 -96.8 -14.8 -94.2 -21.5C-91.5 -28.2 -87.1 -34.2 -83.1 -40C-79.2 -45.9 -75.8 -51.6 -71.9 -57.4C-68.1 -63.1 -63.9 -68.8 -58.8 -73.7C-53.7 -78.6 -47.7 -82.6 -41.4 -86C-35.1 -89.4 -28.5 -92.1 -21.6 -94.4C-14.6 -96.7 -7.3 -98.5 0 -100.3L0 0Z"
								fill="#287472"
							></path>
							<path
								d="M-49.1 0C-48.8 -3.7 -48.4 -7.4 -47.1 -10.7C-45.8 -14.1 -43.5 -17.1 -41.6 -20C-39.6 -23 -37.9 -25.8 -36 -28.7C-34.1 -31.5 -31.9 -34.4 -29.4 -36.9C-26.8 -39.3 -23.9 -41.3 -20.7 -43C-17.6 -44.7 -14.3 -46.1 -10.8 -47.2C-7.3 -48.4 -3.7 -49.2 0 -50.1L0 0Z"
								fill="#006866"
							></path>
						</g>
					</svg>