<svg
					id="visual"
					viewBox="0 0 1000 800"
					width="1000"
					height="800"
					xmlns="http://www.w3.org/2000/svg"
					xmlnsXlink="http://www.w3.org/1999/xlink"
					version="1.1"
					class="absolute -left-80 top-0 z-0 hidden sm:top-[500px] sm:block lg:-left-0"
				>
					<rect x="0" y="0" width="1000" height="800" fill="#ffffff"></rect>
					<g transform="translate(0, 0)">
						<path
							d="M346 0C342.1 26 338.1 51.9 327.6 74.8C317 97.6 299.8 117.4 286.5 138C273.2 158.5 263.8 179.9 251.7 200.8C239.7 221.7 224.9 242.1 207.6 260.3C190.4 278.6 170.6 294.6 148.8 309C127 323.5 103.2 336.5 78.1 342.2C53 347.9 26.5 346.5 0 345L0 0Z"
							fill="#ecf2f1"
						></path>
						<path
							d="M296.6 0C293.2 22.2 289.8 44.5 280.8 64.1C271.7 83.7 257 100.6 245.6 118.3C234.2 135.9 226.1 154.2 215.8 172.1C205.4 190 192.8 207.5 178 223.2C163.2 238.8 146.2 252.5 127.6 264.9C108.9 277.3 88.5 288.4 66.9 293.3C45.4 298.2 22.7 297 0 295.7L0 0Z"
							fill="#c5d8d6"
						></path>
						<path
							d="M247.1 0C244.3 18.5 241.5 37.1 234 53.4C226.4 69.7 214.1 83.9 204.6 98.6C195.2 113.2 188.5 128.5 179.8 143.4C171.2 158.3 160.6 172.9 148.3 186C136 199 121.9 210.4 106.3 220.7C90.7 231.1 73.7 240.3 55.8 244.4C37.8 248.5 18.9 247.5 0 246.4L0 0Z"
							fill="#9fbebc"
						></path>
						<path
							d="M197.7 0C195.5 14.8 193.2 29.7 187.2 42.7C181.1 55.8 171.3 67.1 163.7 78.8C156.1 90.6 150.8 102.8 143.9 114.7C137 126.7 128.5 138.4 118.6 148.8C108.8 159.2 97.5 168.3 85 176.6C72.6 184.9 59 192.3 44.6 195.5C30.3 198.8 15.1 198 0 197.1L0 0Z"
							fill="#7aa5a3"
						></path>
						<path
							d="M148.3 0C146.6 11.1 144.9 22.2 140.4 32C135.9 41.8 128.5 50.3 122.8 59.1C117.1 67.9 113.1 77.1 107.9 86C102.7 95 96.4 103.8 89 111.6C81.6 119.4 73.1 126.2 63.8 132.4C54.4 138.6 44.2 144.2 33.5 146.7C22.7 149.1 11.3 148.5 0 147.9L0 0Z"
							fill="#538c8a"
						></path>
						<path
							d="M98.9 0C97.7 7.4 96.6 14.8 93.6 21.4C90.6 27.9 85.7 33.5 81.9 39.4C78.1 45.3 75.4 51.4 71.9 57.4C68.5 63.3 64.3 69.2 59.3 74.4C54.4 79.6 48.7 84.2 42.5 88.3C36.3 92.4 29.5 96.1 22.3 97.8C15.1 99.4 7.6 99 0 98.6L0 0Z"
							fill="#287472"
						></path>
						<path
							d="M49.4 0C48.9 3.7 48.3 7.4 46.8 10.7C45.3 13.9 42.8 16.8 40.9 19.7C39 22.6 37.7 25.7 36 28.7C34.2 31.7 32.1 34.6 29.7 37.2C27.2 39.8 24.4 42.1 21.3 44.1C18.1 46.2 14.7 48.1 11.2 48.9C7.6 49.7 3.8 49.5 0 49.3L0 0Z"
							fill="#006866"
						></path>
					</g>
				</svg>